# xmcd CD database file
#
# Track frame offsets:
#	182
#	14980
#	33360
#	53042
#	75355
#	94480
#	108862
#	116867
#	136282
#	157475
#	179220
#
# Disc length: 2556 seconds
#
# Revision: 3
# Processed by: cddbd v1.5.2PL0 Copyright (c) Steve Scherf et al.
# Submitted via: CDex 1.70beta2
#
DISCID=9e09fa0b
DTITLE=Michal Tučný - Jižanský rok
DYEAR=1994
DGENRE=Country
TTITLE0=Jižanský rok
TTITLE1=Přistup k ohni
TTITLE2=Jednou jsem taky pracoval
TTITLE3=Černý Bill a Bílá Nelly
TTITLE4=Viva Las Vegas
TTITLE5=Hello Mr. Déja vu
TTITLE6=Stáda bílých mustangů
TTITLE7=Pouliční zpěvák
TTITLE8=Moře brázdím
TTITLE9=Dlouhá pouť
TTITLE10=Já budu žít navěky
EXTD=\n\n\n\n\n\n\n YEAR: 1994
EXTT0=
EXTT1=
EXTT2=
EXTT3=
EXTT4=
EXTT5=
EXTT6=
EXTT7=
EXTT8=
EXTT9=
EXTT10=
PLAYORDER=
